<svg xmlns="http://www.w3.org/2000/svg" width="41.529" height="41.2" viewBox="0 0 41.529 41.2"><defs><style>.a{fill:#d3c9c9;}</style></defs><g transform="translate(0.008)"><path class="a" d="M24.032,0c.025.011.062.034.087.046a3.461,3.461,0,0,1,2.9,3.177c.012.482,0,.952,0,1.445H.025A4.972,4.972,0,0,1,.57,1.617,3.685,3.685,0,0,1,3,0Z" transform="translate(-0.019)"/><path class="a" d="M117.1,270.6h27.017v.333c0,2.1.012,4.209,0,6.308a3.369,3.369,0,0,1-1.635,2.971,3.184,3.184,0,0,1-1.8.539c-6.714.011-13.428,0-20.13.011a3.5,3.5,0,0,1-3.419-3.017c-.025-.218-.025-.447-.037-.677V270.6Zm4.534,6.6h7.445v-3.223h-7.445Z" transform="translate(-102.601 -239.562)"/><path class="a" d="M27.1,69.6v6.5a3.43,3.43,0,0,1-1.784,3.189,3.525,3.525,0,0,1-1.784.459H10.467c-2.242,0-4.5-.023-6.739.011A3.562,3.562,0,0,1,1,78.615a3,3,0,0,1-.892-2.065C.074,74.257.086,71.974.086,69.68a.275.275,0,0,1,.025-.08ZM4.6,76.184H14.951V72.961H4.6Z" transform="translate(-0.081 -61.617)"/><path class="a" d="M143.991,205.69h-26.98a4.359,4.359,0,0,1,.731-3.372,3.469,3.469,0,0,1,2.775-1.308c4.137.011,8.275,0,12.425,0,2.49,0,4.98.011,7.47-.011a3.49,3.49,0,0,1,2.762,1.216,3.175,3.175,0,0,1,.818,1.927C144.028,204.646,143.991,205.15,143.991,205.69Z" transform="translate(-102.487 -177.944)"/><path class="a" d="M236.234,7.636v4.118l-.074.034c-1.945-1.938-3.9-3.865-5.859-5.815,1.97-1.95,3.914-3.877,5.921-5.873V4.206c.756.149,1.462.275,2.155.436a5.893,5.893,0,0,1,2.738,1.537,6.615,6.615,0,0,1,2.18,4.921c.012,2.65,0,5.3,0,7.949V19.3h-3.32V11.375a3.571,3.571,0,0,0-1.486-3.051A3.5,3.5,0,0,0,236.234,7.636Z" transform="translate(-201.779 -0.089)"/><path class="a" d="M13,205.017c-1.97,1.95-3.914,3.888-5.921,5.884v-4.129c-.718-.138-1.375-.241-2.032-.379a5.9,5.9,0,0,1-2.837-1.56,6.475,6.475,0,0,1-2.193-4.691c-.05-2.776-.012-5.551-.012-8.327A.617.617,0,0,1,.03,191.7h3.3v8.063a3.469,3.469,0,0,0,1.462,2.9,3.562,3.562,0,0,0,2.267.688v-4.118c.025-.011.062-.023.087-.034C9.1,201.14,11.043,203.078,13,205.017Z" transform="translate(0 -169.712)"/></g></svg>