<svg xmlns="http://www.w3.org/2000/svg" width="51.237" height="39.544" viewBox="0 0 51.237 39.544"><defs><style>.a{fill:#d3c9c9;}</style></defs><g transform="translate(-0.285 0.044)"><path class="a" d="M25.933-.041c4.072,0,8.145-.009,12.226,0A13.22,13.22,0,0,1,50.852,8.792a12.3,12.3,0,0,1,.665,4.028c0,1.918.009,3.836,0,5.755A12.918,12.918,0,0,1,39.858,31.3c-1.69.192-3.407.087-5.115.113-.584.009-1.277-.174-1.717.07-.458.253-.665.924-.971,1.421-.944,1.535-1.87,3.078-2.814,4.6a3.792,3.792,0,0,1-6.67,0c-1.178-1.918-2.355-3.845-3.515-5.772a.6.6,0,0,0-.6-.331c-2-.009-4.027.1-6.014-.078A12.847,12.847,0,0,1,1.3,23.483a11.322,11.322,0,0,1-1.007-4.83c-.009-1.979-.018-3.95,0-5.929A12.927,12.927,0,0,1,11.918.064a16.151,16.151,0,0,1,1.834-.1Q19.847-.045,25.933-.041ZM9.509,18.871c-.018.445.189.584.557.4.71-.349,1.4-.724,2.113-1.055a.75.75,0,0,1,.566.009c.683.323,1.348.7,2.032,1.029.153.078.431.14.521.07a.673.673,0,0,0,.144-.532c-.1-.715-.243-1.43-.342-2.154a.687.687,0,0,1,.162-.488c.53-.549,1.106-1.072,1.636-1.613.117-.122.27-.375.216-.462a.8.8,0,0,0-.512-.323c-.692-.122-1.393-.209-2.086-.288a.664.664,0,0,1-.575-.41c-.324-.671-.656-1.334-1.007-1.988a.608.608,0,0,0-.4-.279c-.108-.009-.27.157-.342.279-.333.628-.665,1.264-.962,1.918a.769.769,0,0,1-.71.488c-.71.07-1.429.166-2.131.288-.171.026-.44.148-.458.253a.706.706,0,0,0,.225.506c.512.514,1.043,1,1.582,1.491a.57.57,0,0,1,.2.61C9.77,17.38,9.635,18.156,9.509,18.871Zm26.726.044c0,.349.234.48.584.314.692-.34,1.384-.689,2.068-1.055a.6.6,0,0,1,.656.009c.674.366,1.366.724,2.059,1.064a.588.588,0,0,0,.485-.009c.09-.052.126-.279.108-.419-.108-.732-.261-1.456-.351-2.2a.739.739,0,0,1,.171-.523c.539-.549,1.115-1.055,1.654-1.6a.6.6,0,0,0,.171-.48.618.618,0,0,0-.423-.305c-.719-.131-1.447-.235-2.175-.314a.654.654,0,0,1-.566-.41c-.306-.645-.629-1.282-.971-1.918-.081-.148-.261-.331-.4-.34-.126-.009-.315.183-.4.331-.351.645-.647,1.308-1.007,1.944a.882.882,0,0,1-.521.366c-.764.14-1.537.218-2.31.349-.153.026-.378.122-.423.244s.072.323.18.436c.494.488.989.977,1.519,1.421a.818.818,0,0,1,.288.915C36.5,17.467,36.37,18.191,36.235,18.914Zm-13.376.026c0,.323.234.453.584.279.683-.331,1.357-.671,2.023-1.029a.683.683,0,0,1,.737.009c.647.357,1.312.7,1.978,1.02a.643.643,0,0,0,.521.017c.1-.061.126-.305.108-.462-.1-.715-.252-1.43-.342-2.145a.8.8,0,0,1,.189-.558c.512-.523,1.079-1.011,1.591-1.535.126-.122.261-.384.207-.5a.75.75,0,0,0-.494-.34c-.692-.131-1.384-.227-2.086-.305a.669.669,0,0,1-.593-.436c-.3-.628-.611-1.256-.953-1.875a.79.79,0,0,0-.431-.366c-.108-.017-.3.2-.378.349q-.512.942-.971,1.909a.63.63,0,0,1-.566.41c-.755.078-1.51.192-2.265.323-.171.026-.414.14-.449.262s.1.34.225.462c.521.523,1.079,1,1.591,1.535a.731.731,0,0,1,.18.549C23.173,17.328,23.012,18.13,22.859,18.941Z" transform="translate(0 0)"/></g></svg>