<svg xmlns="http://www.w3.org/2000/svg" width="30.57" height="36.51" viewBox="0 0 30.57 36.51"><defs><style>.a{fill:#d3c9c9;}</style></defs><g transform="translate(0.165 0)"><path class="a" d="M6.611,211.3a13.394,13.394,0,0,0,17,.016.609.609,0,0,1,.161.09,17.127,17.127,0,0,1,6.3,9.023,10.229,10.229,0,0,1,.009,5.141,5.026,5.026,0,0,1-3.474,3.627,18.669,18.669,0,0,1-4.8.962,81.843,81.843,0,0,1-10.628.181,29.265,29.265,0,0,1-6.493-.814,8.022,8.022,0,0,1-2.786-1.258,5.1,5.1,0,0,1-1.911-3.479c-.563-3.381.518-6.391,2.456-9.2a18.218,18.218,0,0,1,3.769-4C6.343,211.5,6.468,211.4,6.611,211.3Z" transform="translate(0 -193.92)"/><path class="a" d="M71.5,17.906c-5.332-.049-9.753-3.8-9.806-8.924C61.662,4.038,66.047.008,71.468,0c5.368-.008,9.735,3.989,9.753,8.933S76.881,17.89,71.5,17.906Z" transform="translate(-56.338 0)"/></g></svg>