<svg xmlns="http://www.w3.org/2000/svg" xmlns:xlink="http://www.w3.org/1999/xlink" width="352" height="114.693" viewBox="0 0 352 114.693"><defs><style>.a{fill:#edf9fc;opacity:0.889;}.b{fill:none;stroke:#428be5;stroke-width:30px;}.c{fill:#000002;font-size:20px;opacity:0.669;}.c,.d,.e{font-family:KannadaSangamMN, Kannada Sangam MN;}.d,.e{fill:#7b7b7b;}.d{font-size:10px;}.e{font-size:15px;}.f{fill:#18365c;}.g{filter:url(#c);}.h{filter:url(#a);}</style><filter id="a" x="33.229" y="0.5" width="318.771" height="114.193" filterUnits="userSpaceOnUse"><feOffset dy="5" input="SourceAlpha"/><feGaussianBlur stdDeviation="3" result="b"/><feFlood flood-opacity="0.161"/><feComposite operator="in" in2="b"/><feComposite in="SourceGraphic"/></filter><filter id="c" x="7" y="0" width="45" height="111" filterUnits="userSpaceOnUse"><feOffset dy="3" input="SourceAlpha"/><feGaussianBlur stdDeviation="2.5" result="d"/><feFlood flood-opacity="0.161"/><feComposite operator="in" in2="d"/><feComposite in="SourceGraphic"/></filter></defs><g transform="translate(-426 -586)"><g transform="translate(468.229 590.5)"><g class="h" transform="matrix(1, 0, 0, 1, -42.23, -4.5)"><rect class="a" width="300.771" height="96.193" transform="translate(42.23 4.5)"/></g></g><g class="g" transform="matrix(1, 0, 0, 1, 426, 586)"><line class="b" y2="96" transform="translate(29.5 4.5)"/></g><text class="c" transform="translate(530.265 617)"><tspan x="-49.561" y="0">2 for $7.00</tspan></text><text class="d" transform="translate(523.889 683)"><tspan x="-41.729" y="0">Offer expires today</tspan></text><text class="e" transform="translate(536.879 638)"><tspan x="-47.966" y="0">BLT Sandwich</tspan></text><text class="e" transform="translate(534.881 658)"><tspan x="-48.344" y="0">Only at A Deli</tspan></text><g transform="translate(670.601 597.401)"><path d="M94.576,28.123H18.517c-1.93,0-2.815-.8-2.77-2.688a88.088,88.088,0,0,1,.454-10.4c1-6.865,5.767-10.709,12.828-10.953A15.617,15.617,0,0,1,38.7,6.617a10.367,10.367,0,0,1,.976.755A2.558,2.558,0,0,1,40,7.728a16.52,16.52,0,0,0-3.065,7.687,10.672,10.672,0,0,0-.091,1.222,2.038,2.038,0,0,0,2.18,2.377,2.073,2.073,0,0,0,2.339-2.244A12.018,12.018,0,0,1,48.9,5.684,13.812,13.812,0,0,1,63.063,7.04c.068.044.091.111.2.267a15.275,15.275,0,0,0-3.11,9.353c0,1.533.636,2.288,2.066,2.333a2.09,2.09,0,0,0,2.452-2.244c.3-5.554,3.292-9.287,8.31-11.464A14.852,14.852,0,0,1,87.833,6.662c-.931,2.177-1.907,4.2-2.656,6.31a14.393,14.393,0,0,0-.568,3.71,1.949,1.949,0,0,0,2.111,2.311c1.476.044,2.316-.622,2.361-2.066a12.936,12.936,0,0,1,.727-3.932,11.044,11.044,0,0,1,3.86-5.177c-.114-1.644-.25-3.266-.386-4.91-.613.333-1.2.667-1.771,1.044C83.179-.67,75.051-1.581,66.786,3.929c.068.022,0,.022-.045-.022q-11.818-7.7-23.794-.222A1.16,1.16,0,0,1,41.9,3.618,20.831,20.831,0,0,0,32.3.241C20.856-.847,11.365,6.6,11.411,18.37v6.6c-.363.111-.7.2-1.022.289a16.98,16.98,0,0,0-6.97,3.555c-2.725,2.533-2.952,6.31-.227,8.865A21.227,21.227,0,0,0,7.846,40.52a20.28,20.28,0,0,0,2.793.911A34.315,34.315,0,0,1,2.1,43.409a2.007,2.007,0,0,0-1.975,1.4,2.051,2.051,0,0,0,.681,2.4,8.28,8.28,0,0,0,1.044.667C3.646,48.94,5.439,49.985,7.324,51.1c-3.633,2.2-5.585,5.221-4.95,9.331.636,4.088,3.36,6.465,7.288,7.554a21.25,21.25,0,0,0-.318,2.244C9.14,76.712,14.294,81.8,21.128,81.8H93.35c-.114-1.4-.2-2.822-.272-4.243H21.4c-4.041,0-6.9-2.177-7.651-5.754-.5-2.422.568-3.732,3.065-3.732H93.033c.045-1.422.114-2.822.2-4.243H11.865c-3.315,0-5.4-2.177-5.086-5.288a4.641,4.641,0,0,1,7.084-3.421c.908.555,1.794,1.089,2.7,1.644a6.735,6.735,0,0,0,7.674-.022,36.92,36.92,0,0,0,4.2-3.532,15.489,15.489,0,0,0,1.34-1.711c1,1.377,1.7,2.377,2.429,3.355,1.544,2.088,2.089,2.266,4.45,1.266,4.473-1.888,8.991-3.71,13.4-5.732a4.862,4.862,0,0,1,5.926.844c2.815,2.466,5.767,4.8,8.718,7.109a7.037,7.037,0,0,0,8.06.511,8.806,8.806,0,0,0,1.726-1.577c.658-.711,1.226-1.511,1.907-2.2a5.358,5.358,0,0,1,5.88-1.533c2.361.778,4.654,1.711,6.993,2.577,1.385.511,2.77,1,4.132,1.511.091.022.159.067.25.089.25-3.4.454-6.821.613-10.22a34.276,34.276,0,0,1-2.566-4.332c.931-.089,1.862-.089,2.725-.156.045-1.466.068-2.933.091-4.4a29.6,29.6,0,0,1-5.744-.555,19.887,19.887,0,0,1-2.588-.933,5.713,5.713,0,0,0,1.612-4.954h6.743C94.6,30.834,94.6,29.479,94.576,28.123ZM61.519,32.145H82.975a2.625,2.625,0,0,1-1.34,3.466A18.765,18.765,0,0,1,76.277,37.5,36.412,36.412,0,0,1,62,36.9a14.747,14.747,0,0,1-1.43-.489C60.906,34.944,61.2,33.589,61.519,32.145Zm-24.611-.067h1.181c5.7,0,11.42-.022,17.119.022a2.087,2.087,0,0,1,1.5.533,1.562,1.562,0,0,1-.25,2.222,6.347,6.347,0,0,1-2.384,1.4A37.207,37.207,0,0,1,46.966,37.5c-3.451.133-6.925-.178-10.4-.311a3.787,3.787,0,0,1-.817-.178c.5-1.644.954-3.155,1.408-4.688A1.287,1.287,0,0,1,36.908,32.078ZM10.434,37.143A9.444,9.444,0,0,1,6.8,35.255c-1.521-1.244-1.34-2.844.2-4.066a12.526,12.526,0,0,1,5.177-2.222c.795,2.422,2.793,3.066,4.995,3.11,4.541.089,9.059,0,13.6.022.477,0,1.362.244,1.385.467a2.388,2.388,0,0,1-.386,1.8,7.177,7.177,0,0,1-2.52,1.622A32.76,32.76,0,0,1,10.434,37.143ZM87.22,43.7a35.8,35.8,0,0,0,5.631,9.02c-.568-.178-.863-.244-1.158-.355-2.793-1.022-5.585-2.022-8.378-3.088A7.1,7.1,0,0,0,75.959,50.3a57.041,57.041,0,0,0-4.337,4.066c-1.5,1.466-2.543,1.6-4.291.422-4.155-2.844-8.31-5.687-12.419-8.576a2.526,2.526,0,0,0-2.52-.333C47.079,47.83,41.766,49.718,36.476,51.7a1.553,1.553,0,0,1-1.953-.422c-.795-.844-1.68-1.6-2.52-2.4-1.385-1.266-2.2-1.311-3.678-.222-1.975,1.489-3.973,2.955-5.926,4.466a2.822,2.822,0,0,1-2.861.533,12.311,12.311,0,0,1-2.5-1.044c-2.974-1.888-5.88-3.866-9.082-5.976,1.408-.4,2.475-.689,3.542-1.044,2.089-.667,4.109-1.489,6.221-2.044a35.579,35.579,0,0,1,4.4-.6c.023.111.068.222.091.333-.7.733-1.453,1.444-2.111,2.222a9.038,9.038,0,0,0-1.294,1.933c-.545,1.155-.068,1.822,1.226,1.755a7.335,7.335,0,0,0,4.518-1.866c1.294-1.133,2.429-2.444,3.678-3.621a2.125,2.125,0,0,1,1.249-.6c2.18-.067,4.382-.022,6.7-.022-.227.311-.477.6-.727.911a2.047,2.047,0,0,0,.3,2.977,1.99,1.99,0,0,0,3.088-.2c.931-1.311,1.635-2.777,2.5-4.266,6.13,1.133,12.555.6,18.981.578a1.98,1.98,0,0,1,1.794.955c1.953,2.488,3.973,4.932,6.085,7.287a2.051,2.051,0,0,0,3.179.156c.976-.978.863-2.088-.227-3.221-1.521-1.577-2.974-3.2-4.45-4.777.091-.133.182-.289.272-.422a24.517,24.517,0,0,0,3.383-.044c1-.133,1.93-.6,2.906-.822a4.074,4.074,0,0,1,2.157-.178,15.538,15.538,0,0,0,6.425,1.155c1.476,0,2.952-.089,4.427-.044A1.534,1.534,0,0,1,87.22,43.7Z" transform="translate(0.013 0.004)"/><path d="M410.9,13.1c.6,7.4,1.2,14.7,1.7,22.1.3-.2.6-.5.9-.7a86.248,86.248,0,0,0,0-22.7A21.018,21.018,0,0,0,410.9,13.1Z" transform="translate(-322.057 0.004)"/></g><ellipse class="f" cx="15" cy="14" rx="15" ry="14" transform="translate(426 615)"/></g></svg>