<svg xmlns="http://www.w3.org/2000/svg" xmlns:xlink="http://www.w3.org/1999/xlink" width="352.469" height="114.693" viewBox="0 0 352.469 114.693"><defs><style>.a{fill:#edf9fc;opacity:0.889;}.b{fill:none;stroke:#f59109;stroke-width:30px;}.c{fill:#000002;font-size:20px;opacity:0.669;}.c,.d,.e{font-family:KannadaSangamMN, Kannada Sangam MN;}.d,.e{fill:#7b7b7b;}.d{font-size:10px;}.e{font-size:15px;}.f{fill:#18365c;}.g{fill:#050000;}.h{filter:url(#c);}.i{filter:url(#a);}</style><filter id="a" x="33.229" y="0.5" width="319.24" height="114.193" filterUnits="userSpaceOnUse"><feOffset dy="5" input="SourceAlpha"/><feGaussianBlur stdDeviation="3" result="b"/><feFlood flood-opacity="0.161"/><feComposite operator="in" in2="b"/><feComposite in="SourceGraphic"/></filter><filter id="c" x="7" y="0" width="45" height="111" filterUnits="userSpaceOnUse"><feOffset dy="3" input="SourceAlpha"/><feGaussianBlur stdDeviation="2.5" result="d"/><feFlood flood-opacity="0.161"/><feComposite operator="in" in2="d"/><feComposite in="SourceGraphic"/></filter></defs><g transform="translate(-9 -517)"><g transform="translate(23.229 107)"><g class="i" transform="matrix(1, 0, 0, 1, -14.23, 410)"><rect class="a" width="301.24" height="96.193" transform="translate(42.23 4.5)"/></g></g><g class="h" transform="matrix(1, 0, 0, 1, 9, 517)"><line class="b" y2="96" transform="translate(29.5 4.5)"/></g><text class="c" transform="translate(118 548)"><tspan x="-60.581" y="0">Free Upgrade</tspan></text><text class="d" transform="translate(100 614)"><tspan x="-41.729" y="0">Offer expires today</tspan></text><text class="e" transform="translate(174 569)"><tspan x="-107.139" y="0">When you buy a medium coffee</tspan></text><text class="e" transform="translate(178 587)"><tspan x="-110.457" y="0">Only at Kim’s Convenience Store</tspan></text><ellipse class="f" cx="15" cy="14" rx="15" ry="14" transform="translate(9 546)"/><g transform="translate(298.743 528.9)"><path class="g" d="M3.836,17.7h-2.3A1.477,1.477,0,0,1,.064,16.019c0-2.632-.018-5.244,0-7.876,0-1.057.575-1.679,1.473-1.679,1.06-.021,2.1-.021,3.162,0,.323,0,.467-.1.557-.477.377-1.389.808-2.757,1.2-4.125A2.066,2.066,0,0,1,8.615.1H42.409A2.09,2.09,0,0,1,44.6,1.9c.4,1.347.808,2.715,1.186,4.063.108.394.269.5.611.5,1.024-.021,2.066-.021,3.09,0,.952,0,1.509.622,1.509,1.72.018,2.612,0,5.2,0,7.814a1.507,1.507,0,0,1-1.509,1.72H47.224c-.234,2.218-.449,4.374-.683,6.55C46.02,29.2,45.5,34.114,45,39.047q-.889,8.643-1.8,17.266c-.467,4.539-.97,9.058-1.437,13.6-.287,2.736-.575,5.472-.844,8.208-.144,1.534-.683,2.114-1.994,2.114H12.119c-1.258,0-1.815-.6-1.958-2.011-.629-6.135-1.294-12.25-1.922-18.385C7.609,53.826,6.98,47.794,6.352,41.783c-.629-5.99-1.276-12-1.9-17.992C4.232,21.74,4.052,19.75,3.836,17.7Zm8.983,59.26H38.241c.719-6.923,1.437-13.784,2.174-20.686H10.645C11.364,63.174,12.083,70.056,12.819,76.958Zm29.949-43.2H8.292c.665,6.4,1.347,12.768,2.012,19.111h30.47C41.439,46.488,42.1,40.146,42.768,33.762Zm1.671-16.022H6.6c.449,4.291.9,8.519,1.329,12.768H43.11C43.559,26.237,44.008,22.009,44.439,17.739ZM48.23,9.8H2.83v4.664h45.4ZM8.04,6.4H43.02c-.252-.85-.521-1.658-.719-2.467-.126-.56-.359-.684-.844-.684Q25.5,3.282,9.568,3.271a1.269,1.269,0,0,0-.4.021.5.5,0,0,0-.287.228C8.6,4.453,8.328,5.406,8.04,6.4Z" transform="translate(0 0)"/><path class="g" d="M88.368,196.562a4.059,4.059,0,0,1-2.767-1.1c-.413-.394-.79-.829-1.2-1.223a1.555,1.555,0,0,0-2.389,0c-.305.29-.593.622-.88.933a4.309,4.309,0,0,1-2.731,1.389,1.581,1.581,0,1,1-.269-3.151,2.49,2.49,0,0,0,1.563-1.016,4.962,4.962,0,0,1,2.569-1.762,4.04,4.04,0,0,1,3.988,1.244c.341.352.665.725,1.024,1.057a1.542,1.542,0,0,0,2.21,0c.323-.311.611-.663.934-.974a4.1,4.1,0,0,1,6.234-.021,5.079,5.079,0,0,0,.719.746,4.188,4.188,0,0,0,1.383.684,1.583,1.583,0,0,1,1.329,1.679,1.47,1.47,0,0,1-1.455,1.513,3.8,3.8,0,0,1-2.605-1.036,15.5,15.5,0,0,1-1.114-1.14,1.668,1.668,0,0,0-2.749.021c-.359.373-.7.746-1.078,1.1A3.95,3.95,0,0,1,88.368,196.562Z" transform="translate(-62.847 -150.945)"/></g></g></svg>