<svg xmlns="http://www.w3.org/2000/svg" width="47.252" height="40.892" viewBox="0 0 47.252 40.892"><defs><style>.a{fill:#d3c9c9;}</style></defs><g transform="translate(-0.011 0.075)"><path class="a" d="M13.889,151.163a19.581,19.581,0,0,0,5.288,4.982c.19-.2.372-.411.563-.613a5.022,5.022,0,0,1,6.571-.52c1.291.955,2.574,1.909,3.848,2.879a4.438,4.438,0,0,1,1.283,5.9,15.146,15.146,0,0,1-3.178,3.849,6.865,6.865,0,0,1-5.545,1.459,15.031,15.031,0,0,1-5.934-2.134A44.032,44.032,0,0,1,1.971,152.778a11.913,11.913,0,0,1-1.92-5.231,5.7,5.7,0,0,1,1.961-5.239,24.206,24.206,0,0,1,3.377-2.421,5.02,5.02,0,0,1,6.7,1.118c.985,1.133,1.97,2.266,2.938,3.407a4.289,4.289,0,0,1-.77,6.473C14.129,150.969,14.013,151.07,13.889,151.163ZM2.882,146.8c.017.217.025.442.058.652a11.621,11.621,0,0,0,1.97,4.649,40.216,40.216,0,0,0,7.862,8.591,31.851,31.851,0,0,0,6.546,4.447,11.513,11.513,0,0,0,3.89,1.242,3.66,3.66,0,0,0,3.211-.877,24.277,24.277,0,0,0,2.359-2.879,1.767,1.767,0,0,0-.554-2.685q-1.825-1.374-3.65-2.732a1.983,1.983,0,0,0-2.8.217c-.414.435-.836.854-1.241,1.3a1.305,1.305,0,0,1-1.142.419,4.076,4.076,0,0,1-1.928-.73,23.2,23.2,0,0,1-6.05-5.673,6.11,6.11,0,0,1-.761-1.575,1.185,1.185,0,0,1,.43-1.366c.43-.365.861-.73,1.3-1.087a1.705,1.705,0,0,0,.257-2.639c-.968-1.141-1.945-2.282-2.913-3.43a1.946,1.946,0,0,0-2.814-.473c-.943.582-1.829,1.25-2.714,1.9A3.214,3.214,0,0,0,2.882,146.8Z" transform="translate(0 -128.353)"/><path class="a" d="M240.215,17.37A14.848,14.848,0,0,1,238.709,17a3.875,3.875,0,0,1-2.615-3.671c-.008-3.143-.017-6.286,0-9.429A4,4,0,0,1,240.34-.069q9.559-.012,19.109,0a4.184,4.184,0,0,1,4.345,4.1c.008,3.081.008,6.154,0,9.235a4.028,4.028,0,0,1-4.27,3.989q-4.779.012-9.559,0a.935.935,0,0,0-.72.272c-1.407,1.335-2.806,2.67-4.237,3.981a2.86,2.86,0,0,1-4.659-1.087,3.132,3.132,0,0,1-.132-.877C240.207,18.805,240.215,18.076,240.215,17.37Zm2.888,2.049c.157-.14.265-.217.356-.31,1.4-1.3,2.814-2.592,4.2-3.9a2,2,0,0,1,1.473-.574c3.368.016,6.728-.016,10.1.016a1.468,1.468,0,0,0,1.647-1.575c.041-3.011.017-6.022.017-9.041a1.279,1.279,0,0,0-1.432-1.358H240.472a1.259,1.259,0,0,0-1.423,1.319v9.274a1.271,1.271,0,0,0,1.415,1.335c.414.008.828-.008,1.241.008a1.373,1.373,0,0,1,1.407,1.343c.008.5,0,1.009,0,1.513C243.1,18.091,243.1,18.72,243.1,19.418Z" transform="translate(-216.537)"/><path class="a" d="M306.964,89.309a2.036,2.036,0,0,1-4.064.016,2.035,2.035,0,0,1,4.064-.016Z" transform="translate(-277.822 -80.686)"/><path class="a" d="M380.642,91.318a1.913,1.913,0,1,1-.033-3.818,2,2,0,0,1,2.052,1.917A1.968,1.968,0,0,1,380.642,91.318Z" transform="translate(-347.255 -80.778)"/><path class="a" d="M455.627,91.318a1.953,1.953,0,0,1-2.028-1.886,1.975,1.975,0,0,1,2.028-1.932,1.914,1.914,0,1,1,0,3.818Z" transform="translate(-416.05 -80.778)"/></g></svg>