<svg xmlns="http://www.w3.org/2000/svg" width="46.293" height="37.4" viewBox="0 0 46.293 37.4"><defs><style>.a{fill:#d3c9c9;}</style></defs><g transform="translate(0.005)"><path class="a" d="M23.477,37.4c-.522-.138-.745-.206-.745-.275-2.534-5.638-7.6-5.569-13.118-5.431-9.54.275-9.54.069-9.54-8.525C.073,16.638.148,10.106,0,3.644-.076.894.968,0,3.875,0Q23.216.1,42.558,0c2.683,0,3.8.962,3.727,3.438-.075,8.319-.075,16.706,0,25.025,0,2.612-1.193,3.438-3.876,3.3-3.354-.138-6.708.206-10.062-.069s-5.739.55-7.155,3.438A11.351,11.351,0,0,1,23.477,37.4Zm-3.2-29.356c.3,4.125.447,7.15.894,10.175.149.894,1.193,1.65,1.863,2.544.745-.894,1.938-1.719,2.162-2.681a37.832,37.832,0,0,0,.671-9.144c-.075-1.1-1.789-2.2-2.758-3.231C21.912,6.669,20.868,7.563,20.272,8.044Z"/></g></svg>