<svg xmlns="http://www.w3.org/2000/svg" width="137.046" height="133.66" viewBox="0 0 137.046 133.66"><defs><style>.a{fill:#e6e6e6;}.b{fill:#fff;}</style></defs><g transform="translate(-13 -44)"><ellipse class="a" cx="68.523" cy="66.83" rx="68.523" ry="66.83" transform="translate(13 44)"/><g transform="translate(31.527 74.376)"><path class="b" d="M123.4,29.321V35.03a15.523,15.523,0,0,1-7.772-1.82c-1.352-.745-2.591-1.572-3.83-2.4a9.458,9.458,0,0,0-7.66-1.158,11.634,11.634,0,0,0-2.816,1.241c-1.014.579-1.915,1.241-2.816,1.82a17.533,17.533,0,0,1-17.347,0c-.9-.579-1.8-1.075-2.7-1.737a9.9,9.9,0,0,0-10.927,0,24.744,24.744,0,0,1-2.7,1.737,17.321,17.321,0,0,1-17.235,0c-1.014-.579-2.028-1.324-3.041-1.9a9.76,9.76,0,0,0-10.363,0L31.148,32.8A16.081,16.081,0,0,1,22.7,35.03V29.321c2.929.165,4.956-1.324,6.984-2.647,4.28-2.978,9.237-3.64,14.531-2.316a16.12,16.12,0,0,1,4.844,2.234c.789.5,1.464.993,2.253,1.489a9.865,9.865,0,0,0,9.8,0l3.041-1.985a17.561,17.561,0,0,1,17.685,0l2.7,1.737a9.619,9.619,0,0,0,10.476,0l3.041-1.986a17.519,17.519,0,0,1,16.9,0c.789.414,1.464.91,2.253,1.406A10.476,10.476,0,0,0,123.4,29.321Z" transform="translate(-22.587 -23.675)"/><path class="b" d="M123.4,60.517a15.351,15.351,0,0,1-8.448-2.234L111.915,56.3a9.76,9.76,0,0,0-10.363,0c-1.014.579-1.915,1.324-2.929,1.9a17.533,17.533,0,0,1-17.347,0c-1.014-.579-1.915-1.241-2.929-1.9a9.76,9.76,0,0,0-10.363,0,33.053,33.053,0,0,1-3.041,1.9,17.321,17.321,0,0,1-17.235,0c-1.014-.579-1.915-1.241-2.929-1.9a9.81,9.81,0,0,0-10.589,0c-.9.579-1.915,1.241-2.816,1.82a16.445,16.445,0,0,1-7.435,2.234H22.7V54.726c2.929.165,4.956-1.241,6.984-2.647,5.52-3.971,14.081-3.971,19.488,0,.563.414,1.239.827,1.915,1.241a9.565,9.565,0,0,0,10.251,0c.676-.414,1.352-.91,2.028-1.324a17.487,17.487,0,0,1,19.15,0,20.052,20.052,0,0,0,2.366,1.489,9.655,9.655,0,0,0,9.687,0c.9-.5,1.69-1.075,2.591-1.655,5.294-3.64,13.517-3.64,18.7,0,.338.248.676.414,1.014.662a10.055,10.055,0,0,0,6.421,2.316C123.4,56.794,123.4,58.614,123.4,60.517Z" transform="translate(-22.587 -28.066)"/><path class="b" d="M123.392,80.487V86.03a15.721,15.721,0,0,1-9.8-2.978c-.676-.414-1.352-.91-2.028-1.324a9.68,9.68,0,0,0-9.913,0A35.636,35.636,0,0,1,98.5,83.713a17.34,17.34,0,0,1-17.46,0c-1.014-.579-1.915-1.241-2.816-1.82a9.43,9.43,0,0,0-10.363,0c-1.014.662-1.915,1.324-2.929,1.9a17.533,17.533,0,0,1-17.347,0c-1.014-.579-1.915-1.241-2.929-1.9a9.43,9.43,0,0,0-10.363,0l-3.041,1.986A16.081,16.081,0,0,1,22.8,86.03V80.4c.225,0,.451-.083.676-.083a8.715,8.715,0,0,0,4.618-1.572,33.042,33.042,0,0,1,3.041-1.9,17.519,17.519,0,0,1,16.9,0c1.014.579,2.028,1.241,3.041,1.9a9.68,9.68,0,0,0,10.7,0,33.045,33.045,0,0,1,3.041-1.9,17.519,17.519,0,0,1,16.9,0c1.014.579,2.028,1.241,3.041,1.9a9.68,9.68,0,0,0,10.7,0c.9-.579,1.915-1.241,2.816-1.82a17.523,17.523,0,0,1,17.122,0c.676.414,1.239.745,1.915,1.158C120.125,80.239,120.688,80.239,123.392,80.487Z" transform="translate(-22.575 -32.483)"/><path class="b" d="M123.417,106.1v5.626a15.928,15.928,0,0,1-4.393-.5,18.434,18.434,0,0,1-5.52-2.482c-.676-.414-1.352-.91-2.028-1.324a9.68,9.68,0,0,0-9.913,0l-3.041,1.985a17.55,17.55,0,0,1-17.573,0c-.9-.579-1.8-1.241-2.816-1.82a9.43,9.43,0,0,0-10.363,0c-.9.579-1.8,1.241-2.816,1.82a17.55,17.55,0,0,1-17.573,0,24.174,24.174,0,0,1-2.591-1.655,10.057,10.057,0,0,0-10.927,0,28.7,28.7,0,0,1-2.816,1.82,15.3,15.3,0,0,1-8.448,2.151v-5.708a10.152,10.152,0,0,0,6.308-2.234,17.022,17.022,0,0,1,8-3.226,17.29,17.29,0,0,1,11.039,2.151,22.56,22.56,0,0,1,2.478,1.655,9.637,9.637,0,0,0,11.039,0c.676-.5,1.464-.993,2.14-1.406a17.433,17.433,0,0,1,18.136,0c1.014.579,1.915,1.241,2.816,1.82a9.654,9.654,0,0,0,9.687,0c.9-.579,1.8-1.241,2.816-1.82a17.276,17.276,0,0,1,18.248,0c.451.331,1.014.662,1.464.993A14.1,14.1,0,0,0,123.417,106.1Z" transform="translate(-22.6 -36.917)"/></g></g></svg>