<svg xmlns="http://www.w3.org/2000/svg" width="86.985" height="90.781" viewBox="0 0 86.985 90.781"><defs><style>.a{fill:#428be5;}.b{fill:#fff;}</style></defs><ellipse class="a" cx="43.493" cy="43.406" rx="43.493" ry="43.406" transform="translate(0)"/><g transform="translate(0 3.969)"><ellipse class="a" cx="43.493" cy="43.406" rx="43.493" ry="43.406"/><g transform="translate(11.952 17.916)"><path class="b" d="M84.415,27.308v3.673a9.148,9.148,0,0,1-4.763-1.171c-.828-.479-1.588-1.011-2.347-1.544a5.564,5.564,0,0,0-4.694-.745,6.963,6.963,0,0,0-1.726.8c-.621.373-1.174.8-1.726,1.171a10.3,10.3,0,0,1-10.631,0c-.552-.373-1.1-.692-1.657-1.118a5.827,5.827,0,0,0-6.7,0,15.1,15.1,0,0,1-1.657,1.118,10.179,10.179,0,0,1-10.562,0c-.621-.373-1.243-.852-1.864-1.224a5.741,5.741,0,0,0-6.351,0l-1.864,1.278A9.5,9.5,0,0,1,22.7,30.981V27.308c1.795.106,3.037-.852,4.28-1.7a10.123,10.123,0,0,1,8.905-1.49,9.669,9.669,0,0,1,2.968,1.437c.483.319.9.639,1.381.958a5.8,5.8,0,0,0,6.006,0L48.1,25.232a10.321,10.321,0,0,1,10.838,0L60.6,26.35a5.661,5.661,0,0,0,6.42,0l1.864-1.278a10.291,10.291,0,0,1,10.355,0c.483.266.9.586,1.381.9A6.223,6.223,0,0,0,84.415,27.308Z" transform="translate(-22.631 -23.675)"/><path class="b" d="M84.415,56.446a9.068,9.068,0,0,1-5.177-1.437l-1.864-1.278a5.741,5.741,0,0,0-6.351,0c-.621.373-1.174.852-1.795,1.224a10.3,10.3,0,0,1-10.631,0c-.621-.373-1.174-.8-1.795-1.224a5.741,5.741,0,0,0-6.351,0,20.133,20.133,0,0,1-1.864,1.224,10.179,10.179,0,0,1-10.562,0c-.621-.373-1.174-.8-1.795-1.224a5.772,5.772,0,0,0-6.489,0c-.552.373-1.174.8-1.726,1.171a9.733,9.733,0,0,1-4.556,1.437H22.7V52.72c1.795.106,3.037-.8,4.28-1.7a10.261,10.261,0,0,1,11.943,0c.345.266.759.532,1.174.8a5.627,5.627,0,0,0,6.282,0c.414-.266.828-.586,1.243-.852a10.292,10.292,0,0,1,11.735,0,12.217,12.217,0,0,0,1.45.958,5.674,5.674,0,0,0,5.937,0c.552-.319,1.035-.692,1.588-1.065a10.223,10.223,0,0,1,11.459,0c.207.16.414.266.621.426a5.988,5.988,0,0,0,3.935,1.49C84.415,54.05,84.415,55.221,84.415,56.446Z" transform="translate(-22.631 -35.566)"/><path class="b" d="M84.446,78.414v3.566a9.227,9.227,0,0,1-2.968-.373,9.515,9.515,0,0,1-3.037-1.544c-.414-.266-.828-.586-1.243-.852a5.691,5.691,0,0,0-6.075,0A21.715,21.715,0,0,1,69.19,80.49a10.192,10.192,0,0,1-10.7,0c-.621-.373-1.174-.8-1.726-1.171a5.551,5.551,0,0,0-6.351,0c-.621.426-1.174.852-1.795,1.224a10.3,10.3,0,0,1-10.631,0c-.621-.373-1.174-.8-1.795-1.224a5.551,5.551,0,0,0-6.351,0L27.977,80.6A9.489,9.489,0,0,1,22.8,81.981v-3.62c.138,0,.276-.053.414-.053a5.177,5.177,0,0,0,2.83-1.011,20.131,20.131,0,0,1,1.864-1.224,10.291,10.291,0,0,1,10.355,0c.621.373,1.243.8,1.864,1.224a5.7,5.7,0,0,0,6.558,0,20.13,20.13,0,0,1,1.864-1.224,10.291,10.291,0,0,1,10.355,0c.621.373,1.243.8,1.864,1.224a5.7,5.7,0,0,0,6.558,0c.552-.373,1.174-.8,1.726-1.171a10.294,10.294,0,0,1,10.493,0c.414.266.759.479,1.174.745A5.075,5.075,0,0,0,84.446,78.414Z" transform="translate(-22.662 -47.528)"/><path class="b" d="M84.384,104.049v3.62a9.319,9.319,0,0,1-2.692-.319,11.044,11.044,0,0,1-3.383-1.6c-.414-.266-.828-.586-1.243-.852a5.691,5.691,0,0,0-6.075,0l-1.864,1.278a10.314,10.314,0,0,1-10.769,0c-.552-.373-1.1-.8-1.726-1.171a5.551,5.551,0,0,0-6.351,0c-.552.373-1.1.8-1.726,1.171a10.314,10.314,0,0,1-10.769,0,14.751,14.751,0,0,1-1.588-1.065,5.919,5.919,0,0,0-6.7,0,17.524,17.524,0,0,1-1.726,1.171,9.032,9.032,0,0,1-5.177,1.384V104a6.042,6.042,0,0,0,3.866-1.437,10.312,10.312,0,0,1,11.666-.692,13.792,13.792,0,0,1,1.519,1.065,5.677,5.677,0,0,0,6.765,0c.414-.319.9-.639,1.312-.9a10.252,10.252,0,0,1,11.114,0c.621.373,1.174.8,1.726,1.171a5.674,5.674,0,0,0,5.937,0c.552-.373,1.1-.8,1.726-1.171a10.162,10.162,0,0,1,11.183,0c.276.213.621.426.9.639A8.362,8.362,0,0,0,84.384,104.049Z" transform="translate(-22.6 -59.536)"/></g></g></svg>