<svg xmlns="http://www.w3.org/2000/svg" width="670" height="52" viewBox="0 0 670 52"><g transform="translate(-441 -345)"><rect width="670" height="52" rx="26" transform="translate(441 345)" fill="#1d354d"/><path d="M26,0H471a0,0,0,0,1,0,0V52a0,0,0,0,1,0,0H26A26,26,0,0,1,0,26v0A26,26,0,0,1,26,0Z" transform="translate(441 345)" fill="#49ded9"/><path d="M462.461,64,471,45.5V64Zm-42,0,24-52h22l-24,52Zm-42,0,24-52h22l-24,52Zm-42,0,24-52h22l-24,52Zm-42,0,24-52h22l-24,52Zm-42,0,24-52h22l-24,52Zm-42,0,24-52h22l-24,52Zm-42,0,24-52h22l-24,52Zm-42,0,24-52h22l-24,52Zm-42,0,24-52h22l-24,52Zm-42,0,24-52h22l-24,52ZM5.237,53.652l19.2-41.606Q25.215,12,26,12H46.462l-23.9,51.775A25.981,25.981,0,0,1,5.237,53.652Z" transform="translate(441 333)" fill="#88e0dd"/></g></svg>