<svg xmlns="http://www.w3.org/2000/svg" width="36.664" height="35" viewBox="0 0 36.664 35"><defs><style>.a{fill:#fff;}</style></defs><g transform="translate(-23 -0.025)"><g transform="translate(23)"><path class="a" d="M8.191,4.134c.611.064,1.4.128,2.2.228a3.849,3.849,0,0,0,3.57-1.3c.525-.593,1.031-1.194,1.566-1.778a3.774,3.774,0,0,1,5.613-.009c.525.574,1.021,1.167,1.537,1.741A3.955,3.955,0,0,0,26.32,4.362a13.947,13.947,0,0,1,3.074-.128,3.4,3.4,0,0,1,2.94,3.811c-.086.675-.162,1.358-.239,2.033a3.446,3.446,0,0,0,1.346,3.236c.63.511,1.279,1,1.9,1.522a3.376,3.376,0,0,1,.01,5.351c-.621.52-1.26,1.021-1.9,1.522A3.417,3.417,0,0,0,32.086,24.9c.067.665.134,1.331.229,2a3.594,3.594,0,0,1-4.143,3.993c-.706-.082-1.422-.173-2.129-.228a3.759,3.759,0,0,0-3.236,1.222c-.525.574-1.021,1.167-1.537,1.741a3.777,3.777,0,0,1-5.862.009c-.487-.547-.955-1.094-1.442-1.641a3.963,3.963,0,0,0-3.618-1.313,13.947,13.947,0,0,1-3.074.128,3.4,3.4,0,0,1-2.95-3.765c.076-.675.162-1.358.239-2.033a3.454,3.454,0,0,0-1.346-3.282c-.611-.492-1.222-.975-1.823-1.468a3.387,3.387,0,0,1-.01-5.47c.611-.5,1.241-.994,1.862-1.5a3.424,3.424,0,0,0,1.337-3.118c-.067-.684-.143-1.358-.229-2.042A3.587,3.587,0,0,1,8.191,4.134Zm21.9,3.647A1.323,1.323,0,0,0,28.6,6.358c-.678.055-1.356.137-2.043.2a6.186,6.186,0,0,1-5.5-2.015c-.525-.583-1.05-1.176-1.585-1.759a1.392,1.392,0,0,0-2.243,0c-.554.6-1.088,1.231-1.652,1.832A5.864,5.864,0,0,1,11,6.586c-.964-.018-1.928-.146-2.893-.237a1.24,1.24,0,0,0-1.5,1.377c.057.638.134,1.267.22,1.9a5.552,5.552,0,0,1-2.072,5.306c-.621.52-1.26,1.021-1.881,1.55a1.25,1.25,0,0,0-.01,2.106c.63.529,1.289,1.039,1.919,1.577a5.525,5.525,0,0,1,2.033,5.224c-.086.629-.172,1.267-.248,1.9a1.275,1.275,0,0,0,1.461,1.44c.716-.064,1.422-.146,2.138-.21A6.135,6.135,0,0,1,15.58,30.5c.525.574,1.041,1.149,1.556,1.723A1.424,1.424,0,0,0,19.5,32.2c.535-.6,1.069-1.2,1.613-1.8a5.866,5.866,0,0,1,4.506-1.933c.955.018,1.9.146,2.845.237a1.317,1.317,0,0,0,1.547-1.459c-.067-.665-.143-1.331-.22-2a5.612,5.612,0,0,1,2.158-5.187c.6-.492,1.212-.985,1.8-1.486a1.267,1.267,0,0,0-.01-2.142c-.611-.511-1.241-1-1.843-1.513a5.529,5.529,0,0,1-2.072-5.3C29.948,8.993,30.024,8.346,30.091,7.781Z" transform="translate(0 0)"/><path class="a" d="M126.992,120.1a6.571,6.571,0,1,1-6.893,6.518A6.738,6.738,0,0,1,126.992,120.1Zm-.029,10.94a4.381,4.381,0,1,0-4.573-4.385A4.5,4.5,0,0,0,126.964,131.039Z" transform="translate(-108.634 -109.128)"/></g></g></svg>